<svg width="53" height="54" viewBox="0 0 53 54" fill="none" xmlns="http://www.w3.org/2000/svg">
<circle cx="26.6195" cy="27" r="26.163" fill="#EDECFC"/>
<path d="M16.4211 18.782C7.16619 27.471 10.5036 30.377 12.7191 31.4813C14.9347 32.5856 17.8794 31.0745 21.5814 28.0813C25.2553 25.0881 33.8091 19.3051 35.8284 22.182C37.8476 25.059 37.8757 30.7548 29.2377 38.2814C20.5998 45.808 18.8049 41.3908 23.0678 37.9617C27.3307 34.5036 26.5454 32.4403 24.5262 32.1497C22.4228 31.83 20.5998 32.3531 18.6928 35.9275C18.6928 35.9275 15.8041 41.6814 19.5061 43.1635C22.0582 44.1806 29.6584 41.013 35.2114 35.2301C39.306 30.9582 42.3068 25.8436 41.0448 19.0145C39.4462 10.064 25.676 10.093 16.4211 18.782Z" fill="#ED1C24"/>
</svg>
