<svg width="120" height="120" viewBox="0 0 120 120" fill="none" xmlns="http://www.w3.org/2000/svg">
<mask id="mask0_3147_15137" style="mask-type:alpha" maskUnits="userSpaceOnUse" x="0" y="0" width="120" height="120">
<rect width="120" height="120" fill="#D9D9D9"/>
</mask>
<g mask="url(#mask0_3147_15137)">
<path d="M53 83L88.25 47.75L81.25 40.75L53 69L38.75 54.75L31.75 61.75L53 83ZM60 110C53.0833 110 46.5833 108.687 40.5 106.06C34.4167 103.437 29.125 99.875 24.625 95.375C20.125 90.875 16.5633 85.5833 13.94 79.5C11.3133 73.4167 10 66.9167 10 60C10 53.0833 11.3133 46.5833 13.94 40.5C16.5633 34.4167 20.125 29.125 24.625 24.625C29.125 20.125 34.4167 16.5617 40.5 13.935C46.5833 11.3117 53.0833 10 60 10C66.9167 10 73.4167 11.3117 79.5 13.935C85.5833 16.5617 90.875 20.125 95.375 24.625C99.875 29.125 103.437 34.4167 106.06 40.5C108.687 46.5833 110 53.0833 110 60C110 66.9167 108.687 73.4167 106.06 79.5C103.437 85.5833 99.875 90.875 95.375 95.375C90.875 99.875 85.5833 103.437 79.5 106.06C73.4167 108.687 66.9167 110 60 110ZM60 100C71.1667 100 80.625 96.125 88.375 88.375C96.125 80.625 100 71.1667 100 60C100 48.8333 96.125 39.375 88.375 31.625C80.625 23.875 71.1667 20 60 20C48.8333 20 39.375 23.875 31.625 31.625C23.875 39.375 20 48.8333 20 60C20 71.1667 23.875 80.625 31.625 88.375C39.375 96.125 48.8333 100 60 100Z" fill="#0088CC"/>
</g>
</svg>
