<svg width="40" height="39" viewBox="0 0 40 39" fill="none" xmlns="http://www.w3.org/2000/svg">
<circle cx="20.1942" cy="19.3976" r="19.3976" fill="#6D37EC"/>
<path fill-rule="evenodd" clip-rule="evenodd" d="M18.9758 10.4538C15.0706 10.9991 11.9981 13.9718 11.2865 17.893C11.2089 18.3207 11.1944 18.5571 11.1944 19.3946C11.1944 20.5151 11.2549 20.975 11.5263 21.9159C12.3975 24.9358 14.8878 27.3437 17.9499 28.1267C18.8105 28.3467 19.4971 28.4194 20.4562 28.3919C21.5965 28.3592 22.4742 28.183 23.4804 27.7848C26.1619 26.7235 28.2022 24.4106 28.9131 21.6259C29.6988 18.5483 28.81 15.2963 26.5687 13.0482C25.2227 11.6981 23.6481 10.8721 21.7251 10.5073C21.0945 10.3877 19.6504 10.3596 18.9758 10.4538ZM22.4517 16.2329C23.6683 17.4484 24.6639 18.4572 24.6642 18.4746C24.6645 18.4921 22.847 18.5063 20.6254 18.5063H16.586V17.597V16.6876H18.3836H20.1812V15.3552C20.1812 14.6224 20.1944 14.0228 20.2105 14.0228C20.2266 14.0228 21.2352 15.0173 22.4517 16.2329ZM23.7765 21.1922V22.1016H21.9795H20.1824L20.1712 23.4342L20.1601 24.7667L17.9185 22.5248L15.6769 20.2828H19.7267H23.7765V21.1922Z" fill="white"/>
</svg>
