<svg width="39" height="39" viewBox="0 0 39 39" fill="none" xmlns="http://www.w3.org/2000/svg">
<circle cx="19.5931" cy="19.3976" r="19.3976" fill="#518DFB"/>
<path fill-rule="evenodd" clip-rule="evenodd" d="M10.8858 12.6648C10.755 12.6904 10.5198 12.92 10.4787 13.0622C10.4522 13.1536 10.4438 14.6585 10.4511 17.968L10.4616 22.742L10.5504 22.8715C10.5992 22.9427 10.6979 23.034 10.7697 23.0744L10.9002 23.1478H19.591C27.11 23.1478 28.2952 23.1408 28.3819 23.096C28.5288 23.02 28.7005 22.809 28.7245 22.6749C28.736 22.6106 28.7408 20.4177 28.7352 17.8018L28.7249 13.0455L28.6219 12.9104C28.5652 12.8361 28.4526 12.7452 28.3717 12.7085C28.2292 12.6438 27.9517 12.6418 19.5933 12.6457C14.8461 12.648 10.9277 12.6566 10.8858 12.6648ZM18.1559 24.6399L18.1458 25.0599L17.0021 25.0777C15.7748 25.0969 15.7785 25.0963 15.6121 25.2941C15.4175 25.5254 15.5194 25.9436 15.8055 26.0873C15.9215 26.1456 16.1768 26.1498 19.5933 26.1498C23.0097 26.1498 23.2651 26.1456 23.381 26.0873C23.6671 25.9436 23.7691 25.5254 23.5745 25.2941C23.4081 25.0963 23.4117 25.0969 22.1845 25.0777L21.0408 25.0599L21.0307 24.6399L21.0207 24.22H19.5933H18.1659L18.1559 24.6399Z" fill="white"/>
</svg>
