<svg width="22" height="23" viewBox="0 0 22 23" fill="none" xmlns="http://www.w3.org/2000/svg">
<path d="M19 9H10C8.89543 9 8 9.89543 8 11V20C8 21.1046 8.89543 22 10 22H19C20.1046 22 21 21.1046 21 20V11C21 9.89543 20.1046 9 19 9Z" stroke="black" stroke-opacity="0.33" stroke-width="2" stroke-linecap="round" stroke-linejoin="round"/>
<path d="M4 14H3C2.46957 14 1.96086 13.7893 1.58579 13.4142C1.21071 13.0391 1 12.5304 1 12V3C1 2.46957 1.21071 1.96086 1.58579 1.58579C1.96086 1.21071 2.46957 1 3 1H12C12.5304 1 13.0391 1.21071 13.4142 1.58579C13.7893 1.96086 14 2.46957 14 3V4" stroke="black" stroke-opacity="0.33" stroke-width="2" stroke-linecap="round" stroke-linejoin="round"/>
</svg>
