<svg width="28" height="28" viewBox="0 0 28 28" fill="none" xmlns="http://www.w3.org/2000/svg">
<circle cx="13.8889" cy="13.8889" r="12.6643" fill="#000001" stroke="#FEFEFE" stroke-width="1.55072"/>
<path fill-rule="evenodd" clip-rule="evenodd" d="M18.6925 18.946H14.9433C14.7293 18.946 14.5557 18.7695 14.5557 18.5521C14.5557 18.3347 14.7293 18.1582 14.9433 18.1582H18.6925C18.9065 18.1582 19.0802 18.3347 19.0802 18.5521C19.0802 18.7695 18.9065 18.946 18.6925 18.946" fill="white"/>
<path fill-rule="evenodd" clip-rule="evenodd" d="M14.743 10.0583L9.8763 16.2425C9.78791 16.3549 9.75535 16.4998 9.78791 16.639L10.1399 18.1542L11.7108 18.1342C11.8602 18.1326 11.9982 18.0649 12.0897 17.9493C13.7526 15.8354 16.9228 11.8051 17.0127 11.687C17.0975 11.5473 17.1306 11.3498 17.0861 11.1597C17.0407 10.9648 16.9212 10.7994 16.7491 10.6938C16.7124 10.6681 15.8414 9.98114 15.8145 9.95961C15.4868 9.69281 15.0087 9.73903 14.743 10.0583V10.0583ZM9.83391 18.9469C9.65455 18.9469 9.49844 18.8219 9.45657 18.6439L9.03322 16.821C8.94587 16.4433 9.03271 16.0536 9.271 15.7511L14.1403 9.56334C14.1423 9.56124 14.1439 9.55862 14.146 9.55651C14.6799 8.9079 15.6455 8.81232 16.2968 9.34329C16.3227 9.36377 17.1875 10.0465 17.1875 10.0465C17.5017 10.2366 17.7473 10.5764 17.8403 10.9787C17.9328 11.3768 17.8656 11.7875 17.6501 12.1347C17.6341 12.1604 17.6201 12.1825 12.695 18.4427C12.4577 18.7431 12.1021 18.918 11.7201 18.9228L9.83908 18.9469H9.83391Z" fill="white"/>
</svg>
