<svg version="1.1" id="Layer_1" xmlns="http://www.w3.org/2000/svg" xmlns:xlink="http://www.w3.org/1999/xlink" x="0px" y="0px"
	 width="100%" viewBox="0 0 512 512" enable-background="new 0 0 512 512" xml:space="preserve">
<path fill="#E2574C" opacity="1.000000" stroke="none" 
	d="
M513.000000,235.000000 
	C513.000000,249.354233 513.000000,263.708466 512.625122,278.736023 
	C511.184387,287.352173 510.191559,295.305542 509.038818,303.235687 
	C505.656097,326.506958 497.922577,348.446167 487.724335,369.474518 
	C478.059082,389.403900 465.898499,407.747894 451.195038,424.453674 
	C437.613647,439.884583 422.853241,453.951996 406.168884,465.915588 
	C387.788025,479.095673 367.956787,489.762512 346.732758,497.548065 
	C328.815521,504.120544 310.397278,509.018341 291.315826,511.040619 
	C287.187714,511.478149 283.104095,512.335876 279.000000,513.000000 
	C264.645782,513.000000 250.291550,513.000000 235.263947,512.625122 
	C222.004333,510.304504 209.277344,509.000641 196.861145,506.278992 
	C171.197266,500.653412 147.268692,490.457123 124.724075,476.961090 
	C97.426239,460.619690 74.190277,439.582275 54.541294,414.767822 
	C39.601768,395.900940 27.628897,375.115784 18.842266,352.573120 
	C12.674728,336.749908 7.728817,320.628754 4.941520,303.847656 
	C3.890748,297.521393 2.328880,291.280060 1.000000,285.000000 
	C1.000000,266.645782 1.000000,248.291550 1.360251,229.289032 
	C2.807848,222.544159 4.011506,216.465622 4.961747,210.347717 
	C8.467093,187.779419 15.827255,166.422729 25.630539,145.917282 
	C35.407814,125.466194 47.769825,106.690720 62.772434,89.586174 
	C76.333214,74.125458 91.153725,60.100918 107.806328,48.105801 
	C126.160141,34.885284 146.016098,24.237898 167.250290,16.458164 
	C185.175156,9.890897 203.594421,4.982501 222.680847,2.959401 
	C226.810059,2.521718 230.894791,1.664161 235.000000,1.000000 
	C249.354233,1.000000 263.708466,1.000000 278.736053,1.374862 
	C287.352264,2.815631 295.305695,3.808465 303.235901,4.961220 
	C326.507141,8.343982 348.446350,16.077450 369.474670,26.275745 
	C389.404022,35.941067 407.749756,48.099602 424.453339,62.805695 
	C439.881531,76.388924 453.923615,91.177849 465.908905,107.836014 
	C479.118195,126.195427 489.762573,146.043182 497.548035,167.267258 
	C504.120514,185.184509 509.018311,203.602707 511.040649,222.684143 
	C511.478149,226.812271 512.335876,230.895889 513.000000,235.000000 
M442.473877,164.973206 
	C441.610413,162.864716 441.003906,160.601776 439.843719,158.671631 
	C428.247589,139.379684 415.334076,121.215591 398.565948,105.835609 
	C383.595764,92.104790 367.247742,80.780617 349.205170,71.493233 
	C325.754944,59.422249 300.845642,52.215691 274.823761,50.367847 
	C257.764435,49.156445 240.302139,50.143173 223.307526,52.353569 
	C200.714203,55.292156 179.259155,63.158531 159.258575,74.094055 
	C139.503174,84.895538 121.732185,98.396049 106.231094,115.028069 
	C91.103027,131.259857 78.983620,149.248413 69.324516,169.138672 
	C58.483810,191.462128 51.999187,215.074249 50.299309,239.604813 
	C48.945652,259.139099 49.679489,278.769989 53.743343,298.289612 
	C59.457417,325.735596 70.295959,350.864197 85.720055,373.930450 
	C96.705208,390.358429 110.321709,404.680359 125.698845,417.298279 
	C143.684998,432.057068 163.607620,443.361664 185.267990,451.594177 
	C203.058838,458.355988 221.567093,462.837128 240.528412,463.786682 
	C260.126465,464.768127 279.755676,464.372803 299.209015,460.147583 
	C318.995392,455.850037 337.903076,449.158295 355.501770,439.529755 
	C375.229950,428.736145 393.023773,415.144440 408.371246,398.346924 
	C421.956146,383.478455 433.173859,367.260010 442.411316,349.379150 
	C454.520569,325.939362 461.737915,301.032013 463.620544,275.021423 
	C464.866882,257.801361 463.914795,240.151123 461.586517,223.014160 
	C458.864227,202.977325 452.459686,183.658905 442.473877,164.973206 
z"/>
<path fill="#FFFFFF" opacity="1.000000" stroke="none" 
	d="
M513.000000,234.531342 
	C512.335876,230.895889 511.478149,226.812271 511.040649,222.684143 
	C509.018311,203.602707 504.120514,185.184509 497.548035,167.267258 
	C489.762573,146.043182 479.118195,126.195427 465.908905,107.836014 
	C453.923615,91.177849 439.881531,76.388924 424.453339,62.805695 
	C407.749756,48.099602 389.404022,35.941067 369.474670,26.275745 
	C348.446350,16.077450 326.507141,8.343982 303.235901,4.961220 
	C295.305695,3.808465 287.352264,2.815631 279.204712,1.374862 
	C356.927032,1.000000 434.854095,1.000000 513.000000,1.000000 
	C513.000000,78.687424 513.000000,156.375061 513.000000,234.531342 
z"/>
<path fill="#FFFFFF" opacity="1.000000" stroke="none" 
	d="
M279.468658,513.000000 
	C283.104095,512.335876 287.187714,511.478149 291.315826,511.040619 
	C310.397278,509.018341 328.815521,504.120544 346.732758,497.548065 
	C367.956787,489.762512 387.788025,479.095673 406.168884,465.915588 
	C422.853241,453.951996 437.613647,439.884583 451.195038,424.453674 
	C465.898499,407.747894 478.059082,389.403900 487.724335,369.474518 
	C497.922577,348.446167 505.656097,326.506958 509.038818,303.235687 
	C510.191559,295.305542 511.184387,287.352173 512.625122,279.204712 
	C513.000000,356.927032 513.000000,434.854095 513.000000,513.000000 
	C435.312561,513.000000 357.624939,513.000000 279.468658,513.000000 
z"/>
<path fill="#FFFFFF" opacity="1.000000" stroke="none" 
	d="
M234.531342,1.000000 
	C230.894791,1.664161 226.810059,2.521718 222.680847,2.959401 
	C203.594421,4.982501 185.175156,9.890897 167.250290,16.458164 
	C146.016098,24.237898 126.160141,34.885284 107.806328,48.105801 
	C91.153725,60.100918 76.333214,74.125458 62.772434,89.586174 
	C47.769825,106.690720 35.407814,125.466194 25.630539,145.917282 
	C15.827255,166.422729 8.467093,187.779419 4.961747,210.347717 
	C4.011506,216.465622 2.807848,222.544159 1.360251,228.820374 
	C1.000000,153.072006 1.000000,77.144012 1.000000,1.000000 
	C78.687431,1.000000 156.375061,1.000000 234.531342,1.000000 
z"/>
<path fill="#FFFFFF" opacity="1.000000" stroke="none" 
	d="
M1.000000,285.468658 
	C2.328880,291.280060 3.890748,297.521393 4.941520,303.847656 
	C7.728817,320.628754 12.674728,336.749908 18.842266,352.573120 
	C27.628897,375.115784 39.601768,395.900940 54.541294,414.767822 
	C74.190277,439.582275 97.426239,460.619690 124.724075,476.961090 
	C147.268692,490.457123 171.197266,500.653412 196.861145,506.278992 
	C209.277344,509.000641 222.004333,510.304504 234.795288,512.625122 
	C157.073914,513.000000 79.147827,513.000000 1.000000,513.000000 
	C1.000000,437.312592 1.000000,361.624939 1.000000,285.468658 
z"/>
<path fill="#FFFFFF" opacity="1.000000" stroke="none" 
	d="
M442.695251,165.285645 
	C452.459686,183.658905 458.864227,202.977325 461.586517,223.014160 
	C463.914795,240.151123 464.866882,257.801361 463.620544,275.021423 
	C461.737915,301.032013 454.520569,325.939362 442.411316,349.379150 
	C433.173859,367.260010 421.956146,383.478455 408.371246,398.346924 
	C393.023773,415.144440 375.229950,428.736145 355.501770,439.529755 
	C337.903076,449.158295 318.995392,455.850037 299.209015,460.147583 
	C279.755676,464.372803 260.126465,464.768127 240.528412,463.786682 
	C221.567093,462.837128 203.058838,458.355988 185.267990,451.594177 
	C163.607620,443.361664 143.684998,432.057068 125.698845,417.298279 
	C110.321709,404.680359 96.705208,390.358429 85.720055,373.930450 
	C70.295959,350.864197 59.457417,325.735596 53.743343,298.289612 
	C49.679489,278.769989 48.945652,259.139099 50.299309,239.604813 
	C51.999187,215.074249 58.483810,191.462128 69.324516,169.138672 
	C78.983620,149.248413 91.103027,131.259857 106.231094,115.028069 
	C121.732185,98.396049 139.503174,84.895538 159.258575,74.094055 
	C179.259155,63.158531 200.714203,55.292156 223.307526,52.353569 
	C240.302139,50.143173 257.764435,49.156445 274.823761,50.367847 
	C300.845642,52.215691 325.754944,59.422249 349.205170,71.493233 
	C367.247742,80.780617 383.595764,92.104790 398.565948,105.835609 
	C415.334076,121.215591 428.247589,139.379684 439.843719,158.671631 
	C441.003906,160.601776 441.610413,162.864716 442.695251,165.285645 
M224.000000,178.500000 
	C224.000046,211.498627 223.779831,244.499435 224.106628,277.494812 
	C224.240631,291.023376 229.584976,299.505493 243.080139,303.312225 
	C249.308823,305.069244 256.261200,305.363831 262.763123,304.830536 
	C278.633881,303.528809 289.841309,294.917267 289.923218,278.001770 
	C290.145966,232.004807 290.062988,186.005875 289.929108,140.008224 
	C289.909790,133.376877 287.999878,127.309059 282.926514,122.298698 
	C273.963440,113.446869 262.815552,111.801315 251.374176,113.189545 
	C234.420685,115.246574 223.774048,123.166634 223.977417,142.501740 
	C224.100113,154.166611 224.000000,165.833832 224.000000,178.500000 
M268.504517,399.119446 
	C270.390717,398.206726 272.326324,397.382904 274.155060,396.366730 
	C285.602783,390.005371 291.883484,373.537933 288.504089,360.857422 
	C284.810181,346.996735 271.192963,336.089966 255.234299,336.756378 
	C235.873352,337.564850 220.373199,356.450287 225.704269,377.122437 
	C230.380280,395.254364 248.356537,405.395264 268.504517,399.119446 
z"/>
<path fill="#E2574C" opacity="1.000000" stroke="none" 
	d="
M224.000000,178.000000 
	C224.000000,165.833832 224.100113,154.166611 223.977417,142.501740 
	C223.774048,123.166634 234.420685,115.246574 251.374176,113.189545 
	C262.815552,111.801315 273.963440,113.446869 282.926514,122.298698 
	C287.999878,127.309059 289.909790,133.376877 289.929108,140.008224 
	C290.062988,186.005875 290.145966,232.004807 289.923218,278.001770 
	C289.841309,294.917267 278.633881,303.528809 262.763123,304.830536 
	C256.261200,305.363831 249.308823,305.069244 243.080139,303.312225 
	C229.584976,299.505493 224.240631,291.023376 224.106628,277.494812 
	C223.779831,244.499435 224.000046,211.498627 224.000000,178.000000 
z"/>
<path fill="#E2574C" opacity="1.000000" stroke="none" 
	d="
M268.181000,399.371338 
	C248.356537,405.395264 230.380280,395.254364 225.704269,377.122437 
	C220.373199,356.450287 235.873352,337.564850 255.234299,336.756378 
	C271.192963,336.089966 284.810181,346.996735 288.504089,360.857422 
	C291.883484,373.537933 285.602783,390.005371 274.155060,396.366730 
	C272.326324,397.382904 270.390717,398.206726 268.181000,399.371338 
z"/>
</svg>