<svg width="64" height="64" viewBox="0 0 64 64" fill="none" xmlns="http://www.w3.org/2000/svg">
<path opacity="0.2" d="M32 62C48.5685 62 62 48.5685 62 32C62 15.4315 48.5685 2 32 2C15.4315 2 2 15.4315 2 32C2 48.5685 15.4315 62 32 62Z" fill="#D61313"/>
<path d="M32 62C48.5685 62 62 48.5685 62 32C62 15.4315 48.5685 2 32 2C15.4315 2 2 15.4315 2 32C2 48.5685 15.4315 62 32 62Z" stroke="#D61313" stroke-width="3" stroke-miterlimit="10"/>
<path d="M20.75 29.5C22.8211 29.5 24.5 27.8211 24.5 25.75C24.5 23.6789 22.8211 22 20.75 22C18.6789 22 17 23.6789 17 25.75C17 27.8211 18.6789 29.5 20.75 29.5Z" fill="#D61313"/>
<path d="M43.25 29.5C45.3211 29.5 47 27.8211 47 25.75C47 23.6789 45.3211 22 43.25 22C41.1789 22 39.5 23.6789 39.5 25.75C39.5 27.8211 41.1789 29.5 43.25 29.5Z" fill="#D61313"/>
<path d="M20.75 29.5C22.8211 29.5 24.5 27.8211 24.5 25.75C24.5 23.6789 22.8211 22 20.75 22C18.6789 22 17 23.6789 17 25.75C17 27.8211 18.6789 29.5 20.75 29.5Z" fill="#D61313"/>
<path d="M43.25 29.5C45.3211 29.5 47 27.8211 47 25.75C47 23.6789 45.3211 22 43.25 22C41.1789 22 39.5 23.6789 39.5 25.75C39.5 27.8211 41.1789 29.5 43.25 29.5Z" fill="#D61313"/>
<path d="M44.9995 47.0001C43.6779 44.7233 41.7815 42.8334 39.5001 41.5198C37.2186 40.2061 34.6321 39.5146 31.9995 39.5146C29.3669 39.5146 26.7804 40.2061 24.499 41.5198C22.2175 42.8334 20.3211 44.7233 18.9995 47.0001" stroke="#D61313" stroke-width="3" stroke-linecap="round" stroke-linejoin="round"/>
</svg>
