<svg width="62" height="62" viewBox="0 0 62 62" fill="none" xmlns="http://www.w3.org/2000/svg">
<g filter="url(#filter0_d_27_33)">
<rect x="4" y="2" width="54.069" height="54.069" rx="17.6552" fill="white"/>
</g>
<path fill-rule="evenodd" clip-rule="evenodd" d="M31.5855 16.3451C24.8545 16.3451 19.4476 21.752 19.4476 28.4831C19.4476 35.2141 24.8545 40.621 31.5855 40.621C38.3165 40.621 43.7234 35.2141 43.7234 28.4831C43.7234 21.752 38.3165 16.3451 31.5855 16.3451ZM31.5854 38.415C26.0682 38.415 21.6544 34.0012 21.6544 28.4839C21.6544 22.9667 26.0682 18.5529 31.5854 18.5529C37.1026 18.5529 41.5164 22.9667 41.5164 28.4839C41.5164 34.0012 37.1026 38.415 31.5854 38.415ZM35.999 29.5871C36.661 29.5871 37.1024 29.1458 37.1024 28.4837C37.1024 27.8216 36.661 27.3802 35.999 27.3802H32.6886V24.0699C32.6886 23.4078 32.2472 22.9665 31.5852 22.9665C30.9231 22.9665 30.4817 23.4078 30.4817 24.0699V27.3802H27.1714C26.5093 27.3802 26.0679 27.8216 26.0679 28.4837C26.0679 29.1458 26.5093 29.5871 27.1714 29.5871H30.4817V32.8975C30.4817 33.5596 30.9231 34.0009 31.5852 34.0009C32.2472 34.0009 32.6886 33.5596 32.6886 32.8975V29.5871H35.999Z" fill="#0088CC"/>
<mask id="mask0_27_33" style="mask-type:luminance" maskUnits="userSpaceOnUse" x="19" y="16" width="25" height="25">
<path fill-rule="evenodd" clip-rule="evenodd" d="M31.5855 16.3451C24.8545 16.3451 19.4476 21.752 19.4476 28.4831C19.4476 35.2141 24.8545 40.621 31.5855 40.621C38.3165 40.621 43.7234 35.2141 43.7234 28.4831C43.7234 21.752 38.3165 16.3451 31.5855 16.3451ZM31.5854 38.415C26.0682 38.415 21.6544 34.0012 21.6544 28.4839C21.6544 22.9667 26.0682 18.5529 31.5854 18.5529C37.1026 18.5529 41.5164 22.9667 41.5164 28.4839C41.5164 34.0012 37.1026 38.415 31.5854 38.415ZM35.999 29.5871C36.661 29.5871 37.1024 29.1458 37.1024 28.4837C37.1024 27.8216 36.661 27.3802 35.999 27.3802H32.6886V24.0699C32.6886 23.4078 32.2472 22.9665 31.5852 22.9665C30.9231 22.9665 30.4817 23.4078 30.4817 24.0699V27.3802H27.1714C26.5093 27.3802 26.0679 27.8216 26.0679 28.4837C26.0679 29.1458 26.5093 29.5871 27.1714 29.5871H30.4817V32.8975C30.4817 33.5596 30.9231 34.0009 31.5852 34.0009C32.2472 34.0009 32.6886 33.5596 32.6886 32.8975V29.5871H35.999Z" fill="white"/>
</mask>
<g mask="url(#mask0_27_33)">
<rect x="17.793" y="15.7936" width="26.4828" height="26.4828" fill="#0088CC"/>
</g>
<defs>
<filter id="filter0_d_27_33" x="0.689655" y="0.896552" width="60.6897" height="60.6897" filterUnits="userSpaceOnUse" color-interpolation-filters="sRGB">
<feFlood flood-opacity="0" result="BackgroundImageFix"/>
<feColorMatrix in="SourceAlpha" type="matrix" values="0 0 0 0 0 0 0 0 0 0 0 0 0 0 0 0 0 0 127 0" result="hardAlpha"/>
<feOffset dy="2.2069"/>
<feGaussianBlur stdDeviation="1.65517"/>
<feColorMatrix type="matrix" values="0 0 0 0 0.0788493 0 0 0 0 0.273953 0 0 0 0 0.588287 0 0 0 0.15 0"/>
<feBlend mode="normal" in2="BackgroundImageFix" result="effect1_dropShadow_27_33"/>
<feBlend mode="normal" in="SourceGraphic" in2="effect1_dropShadow_27_33" result="shape"/>
</filter>
</defs>
</svg>
