<svg width="95" height="95" viewBox="0 0 95 95" fill="none" xmlns="http://www.w3.org/2000/svg">
<g filter="url(#filter0_d_6_23)">
<circle cx="47.3672" cy="43.3672" r="35.3672" fill="white"/>
</g>
<path fill-rule="evenodd" clip-rule="evenodd" d="M62.1791 24.1407C61.9812 24.1407 61.7833 24.0912 61.6101 23.9923C56.8595 21.5435 52.7523 20.5047 47.8285 20.5047C42.9295 20.5047 38.2779 21.6672 34.0469 23.9923C33.4531 24.3138 32.7108 24.0912 32.3645 23.4976C32.0428 22.9039 32.2655 22.1372 32.8593 21.8156C37.4614 19.3174 42.5089 18.0312 47.8285 18.0312C53.0986 18.0312 57.7007 19.1938 62.7482 21.7909C63.3668 22.1124 63.5895 22.8545 63.2678 23.4481C63.0451 23.8933 62.6245 24.1407 62.1791 24.1407V24.1407ZM26.7726 37.1264C26.5252 37.1264 26.2778 37.0522 26.0551 36.9038C25.486 36.508 25.3623 35.7412 25.7582 35.1724C28.2077 31.7095 31.3253 28.9887 35.0366 27.0842C42.8058 23.0772 52.7523 23.0525 60.5461 27.0595C64.2575 28.964 67.3751 31.6601 69.8246 35.0982C70.2204 35.6423 70.0967 36.4338 69.5277 36.8296C68.9586 37.2253 68.1916 37.1016 67.7957 36.5328C65.5689 33.4162 62.7482 30.9675 59.408 29.2608C52.3069 25.6249 43.2264 25.6249 36.15 29.2856C32.7851 31.017 29.9644 33.4904 27.7376 36.607C27.5397 36.9532 27.1685 37.1264 26.7726 37.1264V37.1264ZM42.2367 66.9815C41.9151 66.9815 41.5934 66.8579 41.3707 66.6105C39.2181 64.4586 38.0552 63.0735 36.3975 60.0806C34.6902 57.0383 33.7995 53.3281 33.7995 49.3459C33.7995 41.9997 40.0841 36.014 47.8038 36.014C55.5234 36.014 61.808 41.9997 61.808 49.3459C61.808 50.0384 61.2637 50.5826 60.5709 50.5826C59.8781 50.5826 59.3338 50.0384 59.3338 49.3459C59.3338 43.3601 54.1626 38.4874 47.8038 38.4874C41.4449 38.4874 36.2738 43.3601 36.2738 49.3459C36.2738 52.9076 37.0655 56.1973 38.5748 58.8686C40.1583 61.7131 41.247 62.9251 43.1522 64.8544C43.6223 65.3491 43.6223 66.1158 43.1522 66.6105C42.88 66.8579 42.5584 66.9815 42.2367 66.9815ZM59.977 62.4054C57.0327 62.4054 54.4347 61.6633 52.3069 60.204C48.6203 57.7058 46.4182 53.6494 46.4182 49.3456C46.4182 48.653 46.9625 48.1088 47.6553 48.1088C48.3481 48.1088 48.8924 48.653 48.8924 49.3456C48.8924 52.8331 50.6739 56.1228 53.6925 58.151C55.4492 59.3383 57.5028 59.9072 59.977 59.9072C60.5709 59.9072 61.5606 59.833 62.5503 59.6598C63.2183 59.5362 63.8616 59.9814 63.9853 60.674C64.109 61.3418 63.6637 61.9849 62.9709 62.1085C61.5606 62.3806 60.3234 62.4054 59.977 62.4054V62.4054ZM55.0038 67.4994C54.9049 67.4994 54.7811 67.4746 54.6822 67.4499C50.7481 66.3616 48.1749 64.9022 45.478 62.2556C42.014 58.8176 40.1088 54.2417 40.1088 49.3443C40.1088 45.3373 43.5233 42.0723 47.7295 42.0723C51.9358 42.0723 55.3502 45.3373 55.3502 49.3443C55.3502 51.9908 57.6513 54.1427 60.4966 54.1427C63.342 54.1427 65.6431 51.9908 65.6431 49.3443C65.6431 40.0194 57.6018 32.4506 47.7048 32.4506C40.6779 32.4506 34.2449 36.3587 31.35 42.4186C30.3851 44.4221 29.8902 46.7719 29.8902 49.3443C29.8902 51.2735 30.0634 54.3159 31.548 58.2734C31.7954 58.9165 31.4737 59.6338 30.8304 59.8564C30.1871 60.1037 29.4696 59.7575 29.2469 59.1391C28.0345 55.8989 27.4407 52.6834 27.4407 49.3443C27.4407 46.3761 28.0098 43.6801 29.1232 41.3303C32.4139 34.4294 39.713 29.9524 47.7048 29.9524C58.9626 29.9524 68.1173 38.6342 68.1173 49.3195C68.1173 53.3265 64.7029 56.5915 60.4966 56.5915C56.2904 56.5915 52.876 53.3265 52.876 49.3195C52.876 46.6729 50.5749 44.521 47.7295 44.521C44.8841 44.521 42.5831 46.6729 42.5831 49.3195C42.5831 53.5491 44.2161 57.5066 47.2099 60.4748C49.5605 62.7998 51.812 64.086 55.3007 65.0506C55.9688 65.2238 56.3399 65.9163 56.1667 66.5594C56.043 67.1283 55.5234 67.4994 55.0038 67.4994V67.4994Z" fill="#1D1D1D"/>
<defs>
<filter id="filter0_d_6_23" x="0.628018" y="0.763284" width="93.4783" height="93.4783" filterUnits="userSpaceOnUse" color-interpolation-filters="sRGB">
<feFlood flood-opacity="0" result="BackgroundImageFix"/>
<feColorMatrix in="SourceAlpha" type="matrix" values="0 0 0 0 0 0 0 0 0 0 0 0 0 0 0 0 0 0 127 0" result="hardAlpha"/>
<feOffset dy="4.13527"/>
<feGaussianBlur stdDeviation="5.68599"/>
<feComposite in2="hardAlpha" operator="out"/>
<feColorMatrix type="matrix" values="0 0 0 0 0 0 0 0 0 0 0 0 0 0 0 0 0 0 0.15 0"/>
<feBlend mode="normal" in2="BackgroundImageFix" result="effect1_dropShadow_6_23"/>
<feBlend mode="normal" in="SourceGraphic" in2="effect1_dropShadow_6_23" result="shape"/>
</filter>
</defs>
</svg>
