<svg width="17" height="19" viewBox="0 0 17 19" fill="none" xmlns="http://www.w3.org/2000/svg">
<path fill-rule="evenodd" clip-rule="evenodd" d="M8.53319 0.148438C4.15585 0.148438 0.599854 3.70444 0.599854 8.08177C0.599854 12.4591 4.15585 16.0151 8.53319 16.0151H8.99985V18.8151C13.5359 16.6311 16.4665 12.2818 16.4665 8.08177C16.4665 3.70444 12.9105 0.148438 8.53319 0.148438ZM9.46649 13.6819H7.59982V11.8152H9.46649V13.6819ZM9.8399 9.22113C9.83056 9.23047 9.82123 9.24913 9.8119 9.2678C9.76523 9.34247 9.71856 9.41713 9.68123 9.4918C9.66256 9.5198 9.65323 9.55713 9.6439 9.59447C9.6159 9.6598 9.5879 9.72513 9.56923 9.79047C9.5039 9.98647 9.4759 10.1918 9.4759 10.4251H7.5999C7.5999 9.94913 7.67456 9.5478 7.78656 9.2118C7.78656 9.20247 7.78656 9.19313 7.7959 9.1838C7.80523 9.14647 7.83323 9.1278 7.84256 9.09047C7.89856 8.94113 7.9639 8.81047 8.0479 8.6798C8.0759 8.63313 8.11323 8.58647 8.14123 8.5398C8.16923 8.50247 8.1879 8.4558 8.2159 8.4278L8.22523 8.43713C9.00923 7.41047 10.2879 7.09313 10.3906 5.9358C10.4746 5.02113 9.82123 4.13447 8.92523 3.9478C7.95456 3.74247 7.07723 4.3118 6.77856 5.14247C6.6479 5.47847 6.3399 5.74913 5.95723 5.74913H5.77056C5.21056 5.74913 4.7999 5.19847 4.95856 4.65713C5.4719 2.95847 7.17056 1.77313 9.09323 2.05313C10.6706 2.28647 11.9306 3.5838 12.2012 5.16113C12.6119 7.43847 10.6799 7.98913 9.8399 9.22113Z" fill="#1D1D1D"/>
</svg>
