<svg width="23" height="20" viewBox="0 0 23 20" fill="none" xmlns="http://www.w3.org/2000/svg">
<path d="M18.5 19.9999H4.5C4.23478 19.9999 3.98043 19.8946 3.79289 19.707C3.60536 19.5195 3.5 19.2651 3.5 18.9999V9.99992H0.5L10.827 0.61192C11.0111 0.444398 11.2511 0.351562 11.5 0.351562C11.7489 0.351563 11.9889 0.444398 12.173 0.61192L22.5 9.99992H19.5V18.9999C19.5 19.2651 19.3946 19.5195 19.2071 19.707C19.0196 19.8946 18.7652 19.9999 18.5 19.9999ZM12.5 17.9999H17.5V8.15692L11.5 2.70292L5.5 8.15692V17.9999H10.5V11.9999H12.5V17.9999Z" fill="#A7A7A7"/>
</svg>
