<svg width="23" height="22" viewBox="0 0 23 22" fill="none" xmlns="http://www.w3.org/2000/svg">
<path d="M8.18588 2.9994L10.7929 0.392396C10.9804 0.204925 11.2347 0.0996094 11.4999 0.0996094C11.765 0.0996094 12.0194 0.204925 12.2069 0.392396L14.8139 2.9994H18.4999C18.7651 2.9994 19.0195 3.10475 19.207 3.29229C19.3945 3.47983 19.4999 3.73418 19.4999 3.9994V7.6854L22.1069 10.2924C22.2944 10.4799 22.3997 10.7342 22.3997 10.9994C22.3997 11.2646 22.2944 11.5189 22.1069 11.7064L19.4999 14.3134V17.9994C19.4999 18.2646 19.3945 18.519 19.207 18.7065C19.0195 18.894 18.7651 18.9994 18.4999 18.9994H14.8139L12.2069 21.6064C12.0194 21.7939 11.765 21.8992 11.4999 21.8992C11.2347 21.8992 10.9804 21.7939 10.7929 21.6064L8.18588 18.9994H4.49988C4.23467 18.9994 3.98031 18.894 3.79278 18.7065C3.60524 18.519 3.49988 18.2646 3.49988 17.9994V14.3134L0.892884 11.7064C0.705413 11.5189 0.600098 11.2646 0.600098 10.9994C0.600098 10.7342 0.705413 10.4799 0.892884 10.2924L3.49988 7.6854V3.9994C3.49988 3.73418 3.60524 3.47983 3.79278 3.29229C3.98031 3.10475 4.23467 2.9994 4.49988 2.9994H8.18588ZM5.49988 4.9994V8.5144L3.01488 10.9994L5.49988 13.4844V16.9994H9.01488L11.4999 19.4844L13.9849 16.9994H17.4999V13.4844L19.9849 10.9994L17.4999 8.5144V4.9994H13.9849L11.4999 2.5144L9.01488 4.9994H5.49988ZM11.4999 14.9994C10.439 14.9994 9.4216 14.578 8.67146 13.8278C7.92131 13.0777 7.49988 12.0603 7.49988 10.9994C7.49988 9.93853 7.92131 8.92111 8.67146 8.17097C9.4216 7.42082 10.439 6.9994 11.4999 6.9994C12.5608 6.9994 13.5782 7.42082 14.3283 8.17097C15.0785 8.92111 15.4999 9.93853 15.4999 10.9994C15.4999 12.0603 15.0785 13.0777 14.3283 13.8278C13.5782 14.578 12.5608 14.9994 11.4999 14.9994ZM11.4999 12.9994C12.0303 12.9994 12.539 12.7887 12.9141 12.4136C13.2892 12.0385 13.4999 11.5298 13.4999 10.9994C13.4999 10.469 13.2892 9.96025 12.9141 9.58518C12.539 9.21011 12.0303 8.9994 11.4999 8.9994C10.9695 8.9994 10.4607 9.21011 10.0857 9.58518C9.7106 9.96025 9.49988 10.469 9.49988 10.9994C9.49988 11.5298 9.7106 12.0385 10.0857 12.4136C10.4607 12.7887 10.9695 12.9994 11.4999 12.9994Z" fill="#A7A7A7"/>
</svg>
