<svg width="27" height="27" viewBox="0 0 27 27" fill="none" xmlns="http://www.w3.org/2000/svg">
<circle cx="13.2827" cy="13.791" r="13" fill="white"/>
<path d="M18.2538 8.0801L18.2538 8.08009C18.2576 8.08433 18.2663 8.09441 18.2777 8.10775C18.3087 8.14374 18.36 8.20348 18.3914 8.2362L18.6802 7.9595L18.3906 8.23538C19.8492 9.76685 20.5904 11.6088 20.622 13.7736C20.6189 14.4537 20.5457 15.115 20.3774 15.7573L20.377 15.7591C19.9291 17.5007 19.0272 18.9262 17.6552 19.999L17.655 19.9991C15.5351 21.6588 13.1949 22.0637 10.6626 21.2884L10.6623 21.2883C9.17846 20.8354 7.95208 19.9385 6.96987 18.6591C5.93526 17.3083 5.38679 15.7695 5.3309 14.0368L5.33089 14.0363C5.28337 12.6155 5.58184 11.2799 6.24391 10.0428C6.63786 9.30739 7.06045 8.65737 7.66263 8.17763L7.66384 8.17666C7.96566 7.93429 8.27192 7.84969 8.61056 7.91769C9.07425 8.01179 9.38235 8.27675 9.528 8.74338C9.67199 9.21687 9.58368 9.62046 9.25388 9.97645L9.25089 9.97969L9.25091 9.9797C9.22057 10.0132 9.18551 10.0442 9.12916 10.094C9.12446 10.0982 9.1196 10.1025 9.11458 10.1069C9.0572 10.1577 8.97754 10.2289 8.90627 10.3167C8.90611 10.3169 8.90596 10.3171 8.9058 10.3173L9.21654 10.5691C8.45254 11.5042 8.04273 12.589 8.0603 13.8175L18.2538 8.0801ZM18.2538 8.0801L18.2519 8.07792C17.8504 7.62429 17.187 7.54963 16.7185 7.8869L16.718 7.88722C16.22 8.24466 16.051 8.90817 16.3296 9.45987L16.331 9.4626C16.3928 9.58747 16.4929 9.71451 16.6124 9.83398L16.6142 9.83576C18.0507 11.2897 18.6275 13.065 18.1171 15.1209L18.117 15.121C17.6296 17.0809 16.3746 18.3831 14.5274 18.9688L14.5269 18.969C12.7264 19.5372 11.0305 19.1743 9.57721 17.9529L18.2538 8.0801Z" fill="#0088CC" stroke="white" stroke-width="0.8"/>
<path d="M11.7943 6.13175C11.7884 8.39224 11.7884 9.18622 11.7943 11.4465C11.7965 12.0956 12.2661 12.6087 12.8449 12.6664L12.8464 12.6666C13.4586 12.73 14.0141 12.3213 14.1397 11.6797L14.1398 11.6795C14.1551 11.6016 14.1586 11.5133 14.1586 11.394C14.1527 10.2845 14.1527 9.90617 14.1527 8.79697C14.1527 8.38917 14.1531 8.07786 14.1535 7.79328C14.1541 7.29187 14.1546 6.87348 14.1527 6.15662C14.1504 5.65582 13.9384 5.30255 13.5312 5.06897L13.5309 5.06879C13.139 4.84357 12.7533 4.8517 12.3686 5.09405L12.3686 5.09405L12.3674 5.09479C11.9929 5.3289 11.7943 5.66967 11.7943 6.13072L11.7943 6.13175Z" fill="#0088CC" stroke="white" stroke-width="0.8"/>
</svg>
