<svg width="38" height="38" viewBox="0 0 38 38" fill="none" xmlns="http://www.w3.org/2000/svg">
<circle cx="19" cy="19" r="19" fill="#F5F5F5"/>
<path d="M10.8333 15.4997C10.8333 10.9893 14.4896 7.33301 18.9999 7.33301V7.33301C23.5102 7.33301 27.1666 10.9894 27.1666 15.4997V19.2549C27.1666 19.4688 27.2299 19.678 27.3486 19.856L28.2482 21.2054C29.2819 22.756 28.1703 24.833 26.3067 24.833H11.6931C9.82951 24.833 8.71792 22.756 9.75167 21.2054L10.6512 19.856C10.7699 19.678 10.8333 19.4688 10.8333 19.2549V15.4997Z" stroke="#110617" stroke-width="1.75"/>
<path d="M15.699 28.333C16.1795 29.6924 17.476 30.6663 18.9999 30.6663C20.5238 30.6663 21.8202 29.6924 22.3007 28.333" stroke="#110617" stroke-width="1.75" stroke-linecap="round"/>
</svg>
