<svg width="32" height="32" viewBox="0 0 32 32" fill="none" xmlns="http://www.w3.org/2000/svg">
<mask id="path-1-inside-1_12_69" fill="white">
<path d="M2.5 25.003H5.002V5.5C5.002 3.57 6.572 2 8.502 2H27.502C27.514 2 27.523 2.006 27.534 2.006C28.1904 2.01545 28.8169 2.28253 29.2782 2.74964C29.7395 3.21676 29.9988 3.84648 30 4.503C30 4.63561 29.9473 4.76279 29.8536 4.85655C29.7598 4.95032 29.6326 5.003 29.5 5.003H26.002V27.5C26.002 28.879 24.88 30 23.502 30H4.5C3.89733 29.9982 3.31565 29.7784 2.86239 29.3812C2.40913 28.984 2.11489 28.4362 2.034 27.839C2.01257 27.7848 2.00105 27.7272 2 27.669V25.503C2 25.3704 2.05268 25.2432 2.14645 25.1494C2.24021 25.0557 2.36739 25.003 2.5 25.003ZM6.002 5.5V25.003H21.5C21.6326 25.003 21.7598 25.0557 21.8536 25.1494C21.9473 25.2432 22 25.3704 22 25.503V27.5C22 28.327 22.673 29 23.5 29C24.327 29 25 28.327 25 27.5L25.002 28.488V4.515L25 4.503C25 3.937 25.196 3.42 25.515 3H8.502C7.124 3 6.002 4.121 6.002 5.5ZM28.915 4.003C28.708 3.421 28.152 3.003 27.5 3.003C26.848 3.003 26.292 3.421 26.085 4.003H28.915ZM4.5 29H21.513C21.195 28.581 21 28.065 21 27.5V26.003H3V27.5C3 28.327 3.673 29 4.5 29Z"/>
</mask>
<path d="M2.5 25.003H5.002V5.5C5.002 3.57 6.572 2 8.502 2H27.502C27.514 2 27.523 2.006 27.534 2.006C28.1904 2.01545 28.8169 2.28253 29.2782 2.74964C29.7395 3.21676 29.9988 3.84648 30 4.503C30 4.63561 29.9473 4.76279 29.8536 4.85655C29.7598 4.95032 29.6326 5.003 29.5 5.003H26.002V27.5C26.002 28.879 24.88 30 23.502 30H4.5C3.89733 29.9982 3.31565 29.7784 2.86239 29.3812C2.40913 28.984 2.11489 28.4362 2.034 27.839C2.01257 27.7848 2.00105 27.7272 2 27.669V25.503C2 25.3704 2.05268 25.2432 2.14645 25.1494C2.24021 25.0557 2.36739 25.003 2.5 25.003ZM6.002 5.5V25.003H21.5C21.6326 25.003 21.7598 25.0557 21.8536 25.1494C21.9473 25.2432 22 25.3704 22 25.503V27.5C22 28.327 22.673 29 23.5 29C24.327 29 25 28.327 25 27.5L25.002 28.488V4.515L25 4.503C25 3.937 25.196 3.42 25.515 3H8.502C7.124 3 6.002 4.121 6.002 5.5ZM28.915 4.003C28.708 3.421 28.152 3.003 27.5 3.003C26.848 3.003 26.292 3.421 26.085 4.003H28.915ZM4.5 29H21.513C21.195 28.581 21 28.065 21 27.5V26.003H3V27.5C3 28.327 3.673 29 4.5 29Z" fill="#0088CC"/>
<path d="M5.002 25.003H7.002V27.003H5.002V25.003ZM27.534 2.006V0.00600004H27.5484L27.5628 0.00620699L27.534 2.006ZM30 4.503L32 4.49921V4.503H30ZM26.002 5.003H24.002V3.003H26.002V5.003ZM4.5 30V32L4.49406 32L4.5 30ZM2.034 27.839L3.89376 27.1033L3.98325 27.3295L4.01591 27.5706L2.034 27.839ZM2 27.669L0.000326157 27.7051L0 27.6871V27.669H2ZM6.002 25.003V27.003H4.002V25.003H6.002ZM25 27.5H23L27 27.496L25 27.5ZM25.002 28.488H27.002L23.002 28.492L25.002 28.488ZM25.002 4.515L26.9748 4.18623L27.002 4.34949V4.515H25.002ZM25 4.503L23.0272 4.83177L23 4.66851V4.503H25ZM25.515 3V1H29.5455L27.1077 4.20969L25.515 3ZM28.915 4.003L30.7994 3.33279L31.7491 6.003H28.915V4.003ZM26.085 4.003V6.003H23.2509L24.2006 3.33279L26.085 4.003ZM21.513 29L23.1061 27.7909L25.5417 31H21.513V29ZM21 26.003V24.003H23V26.003H21ZM3 26.003H1V24.003H3V26.003ZM2.5 23.003H5.002V27.003H2.5V23.003ZM3.002 25.003V5.5H7.002V25.003H3.002ZM3.002 5.5C3.002 2.46543 5.46743 0 8.502 0V4C7.67657 4 7.002 4.67457 7.002 5.5H3.002ZM8.502 0H27.502V4H8.502V0ZM27.502 0C27.5873 0 27.6659 0.00536001 27.7366 0.0135484C27.8068 0.0216918 27.868 0.0324889 27.918 0.0428829C27.9674 0.0531603 28.0076 0.0634453 28.0341 0.0705838C28.0475 0.0741876 28.0586 0.0773081 28.0661 0.079448C28.0732 0.0814905 28.079 0.0831889 28.0802 0.0835258C28.083 0.0843649 28.0794 0.0832865 28.0761 0.0823542C28.072 0.0811676 28.064 0.0788504 28.0537 0.0760125C28.0336 0.0704654 27.9978 0.06093 27.9524 0.0510315C27.8601 0.030888 27.7144 0.00600004 27.534 0.00600004V4.006C27.3481 4.006 27.1972 3.98036 27.0997 3.95909C27.0518 3.94863 27.0134 3.93844 26.9907 3.93219C26.9792 3.929 26.9698 3.92632 26.9644 3.92476C26.9599 3.92346 26.955 3.92201 26.9566 3.92247C26.9567 3.9225 26.9578 3.92285 26.9594 3.92331C26.9611 3.92379 26.9637 3.92453 26.9668 3.92543C26.973 3.9272 26.9828 3.92996 26.9949 3.93321C27.0188 3.93965 27.0564 3.94928 27.1031 3.95899C27.1503 3.96882 27.2087 3.97915 27.2762 3.98697C27.344 3.99483 27.4197 4 27.502 4V0ZM27.5628 0.00620699C28.744 0.0232022 29.8711 0.503779 30.7012 1.34429L27.8552 4.155C27.7626 4.06128 27.6369 4.00769 27.5052 4.00579L27.5628 0.00620699ZM30.7012 1.34429C31.5313 2.18481 31.9978 3.3179 32 4.49921L28 4.50679C27.9998 4.37507 27.9477 4.24872 27.8552 4.155L30.7012 1.34429ZM32 4.503C32 5.16604 31.7366 5.80193 31.2678 6.27077L28.4393 3.44234C28.158 3.72364 28 4.10518 28 4.503H32ZM31.2678 6.27077C30.7989 6.73961 30.163 7.003 29.5 7.003V3.003C29.1022 3.003 28.7206 3.16103 28.4393 3.44234L31.2678 6.27077ZM29.5 7.003H26.002V3.003H29.5V7.003ZM28.002 5.003V27.5H24.002V5.003H28.002ZM28.002 27.5C28.002 29.9841 25.984 32 23.502 32V28C23.776 28 24.002 27.7739 24.002 27.5H28.002ZM23.502 32H4.5V28H23.502V32ZM4.49406 32C3.40847 31.9968 2.36071 31.6009 1.54426 30.8854L4.18052 27.877C4.27059 27.956 4.38618 27.9997 4.50594 28L4.49406 32ZM1.54426 30.8854C0.727804 30.1699 0.197792 29.1832 0.0520954 28.1074L4.01591 27.5706C4.03198 27.6893 4.09045 27.7981 4.18052 27.877L1.54426 30.8854ZM0.174244 28.5747C0.0646267 28.2976 0.00571251 28.0031 0.000326157 27.7051L3.99967 27.6329C3.99639 27.4514 3.96051 27.272 3.89376 27.1033L0.174244 28.5747ZM0 27.669V25.503H4V27.669H0ZM0 25.503C0 24.84 0.263388 24.2041 0.732233 23.7352L3.56066 26.5637C3.84197 26.2824 4 25.9008 4 25.503H0ZM0.732233 23.7352C1.20108 23.2664 1.83696 23.003 2.5 23.003V27.003C2.89782 27.003 3.27935 26.845 3.56066 26.5637L0.732233 23.7352ZM8.002 5.5V25.003H4.002V5.5H8.002ZM6.002 23.003H21.5V27.003H6.002V23.003ZM21.5 23.003C22.163 23.003 22.7989 23.2664 23.2678 23.7352L20.4393 26.5637C20.7206 26.845 21.1022 27.003 21.5 27.003V23.003ZM23.2678 23.7352C23.7366 24.2041 24 24.84 24 25.503H20C20 25.9008 20.158 26.2824 20.4393 26.5637L23.2678 23.7352ZM24 25.503V27.5H20V25.503H24ZM24 27.5C24 27.2224 23.7776 27 23.5 27V31C21.5684 31 20 29.4316 20 27.5H24ZM23.5 27C23.2224 27 23 27.2224 23 27.5H27C27 29.4316 25.4316 31 23.5 31V27ZM27 27.496L27.002 28.484L23.002 28.492L23 27.504L27 27.496ZM23.002 28.488V4.515H27.002V28.488H23.002ZM23.0292 4.84377L23.0272 4.83177L26.9728 4.17423L26.9748 4.18623L23.0292 4.84377ZM23 4.503C23 3.46247 23.3628 2.52702 23.9223 1.79031L27.1077 4.20969C27.0292 4.31298 27 4.41153 27 4.503H23ZM25.515 5H8.502V1H25.515V5ZM8.502 5C8.22805 5 8.002 5.22609 8.002 5.5H4.002C4.002 3.01591 6.01995 1 8.502 1V5ZM27.0306 4.67321C27.0972 4.86028 27.2763 5.003 27.5 5.003V1.003C29.0277 1.003 30.3188 1.98172 30.7994 3.33279L27.0306 4.67321ZM27.5 5.003C27.7237 5.003 27.9028 4.86028 27.9694 4.67321L24.2006 3.33279C24.6812 1.98172 25.9723 1.003 27.5 1.003V5.003ZM26.085 2.003H28.915V6.003H26.085V2.003ZM4.5 27H21.513V31H4.5V27ZM19.9199 30.2091C19.3607 29.4723 19 28.5379 19 27.5H23C23 27.5921 23.0293 27.6897 23.1061 27.7909L19.9199 30.2091ZM19 27.5V26.003H23V27.5H19ZM21 28.003H3V24.003H21V28.003ZM5 26.003V27.5H1V26.003H5ZM5 27.5C5 27.2224 4.77757 27 4.5 27V31C2.56843 31 1 29.4316 1 27.5H5Z" fill="#0088CC" mask="url(#path-1-inside-1_12_69)"/>
<path d="M19.5 5.46899H11.5M22.5 8.46899H8.5M22.5 11.469H8.5M22.5 14.469H8.5M22.5 17.469H8.5M22.5 20.469H8.5" stroke="#0088CC" stroke-width="1.5" stroke-miterlimit="10" stroke-linecap="round" stroke-linejoin="round"/>
</svg>
