<svg width="28" height="28" viewBox="0 0 28 28" fill="none" xmlns="http://www.w3.org/2000/svg">
<path fill-rule="evenodd" clip-rule="evenodd" d="M13.1513 5.31147C12.7204 5.7424 12.7204 6.44106 13.1513 6.87199L18.9903 12.7109H6.20794C5.59852 12.7109 5.10449 13.205 5.10449 13.8144C5.10449 14.4238 5.59852 14.9178 6.20794 14.9178H18.9932L13.1513 20.7597C12.7204 21.1907 12.7204 21.8893 13.1513 22.3203C13.5822 22.7512 14.2809 22.7512 14.7118 22.3203L22.436 14.5961C22.5537 14.4784 22.6393 14.3406 22.6927 14.1938C22.736 14.0755 22.7597 13.9477 22.7597 13.8144C22.7597 13.4896 22.6193 13.1976 22.396 12.9957L14.7118 5.31147C14.2809 4.88055 13.5822 4.88055 13.1513 5.31147Z" fill="black"/>
<mask id="mask0_3147_15284" style="mask-type:luminance" maskUnits="userSpaceOnUse" x="5" y="4" width="18" height="19">
<path fill-rule="evenodd" clip-rule="evenodd" d="M13.1513 5.31147C12.7204 5.7424 12.7204 6.44106 13.1513 6.87199L18.9903 12.7109H6.20794C5.59852 12.7109 5.10449 13.205 5.10449 13.8144C5.10449 14.4238 5.59852 14.9178 6.20794 14.9178H18.9932L13.1513 20.7597C12.7204 21.1907 12.7204 21.8893 13.1513 22.3203C13.5822 22.7512 14.2809 22.7512 14.7118 22.3203L22.436 14.5961C22.5537 14.4784 22.6393 14.3406 22.6927 14.1938C22.736 14.0755 22.7597 13.9477 22.7597 13.8144C22.7597 13.4896 22.6193 13.1976 22.396 12.9957L14.7118 5.31147C14.2809 4.88055 13.5822 4.88055 13.1513 5.31147Z" fill="white"/>
</mask>
<g mask="url(#mask0_3147_15284)">
<rect x="0.689453" y="0.574219" width="26.4828" height="26.4828" fill="#575757"/>
</g>
</svg>
