<svg width="29" height="29" viewBox="0 0 29 29" fill="none" xmlns="http://www.w3.org/2000/svg">
<path fill-rule="evenodd" clip-rule="evenodd" d="M14.5 0.619141C6.83769 0.619141 0.619019 6.83781 0.619019 14.5001C0.619019 22.1624 6.83769 28.381 14.5 28.381C22.1623 28.381 28.3809 22.1624 28.3809 14.5001C28.3809 6.83781 22.1623 0.619141 14.5 0.619141ZM14.5 4.78343C16.8042 4.78343 18.6643 6.64347 18.6643 8.94771C18.6643 11.252 16.8042 13.112 14.5 13.112C12.1957 13.112 10.3357 11.252 10.3357 8.94771C10.3357 6.64347 12.1957 4.78343 14.5 4.78343ZM14.5 24.4944C11.0297 24.4944 7.96204 22.7176 6.1714 20.0247C6.21304 17.2624 11.7238 15.7494 14.5 15.7494C17.2623 15.7494 22.7869 17.2624 22.8285 20.0247C21.0379 22.7176 17.9702 24.4944 14.5 24.4944Z" fill="#000001"/>
</svg>
