<svg width="203" height="197" viewBox="0 0 203 197" fill="none" xmlns="http://www.w3.org/2000/svg">
<circle cx="111.36" cy="95.3968" r="75.3244" transform="rotate(-13.8901 111.36 95.3968)" fill="#000001"/>
<path fill-rule="evenodd" clip-rule="evenodd" d="M149.062 3.48664C147.928 4.4778 135.621 15.2092 121.712 27.3343C107.804 39.4594 84.5488 59.7328 70.0348 72.3864C55.5211 85.0402 43.4315 95.7117 43.1695 96.1012C42.5793 96.9782 42.3335 98.345 42.5841 99.3582C42.8296 100.351 44.0889 101.779 44.9926 102.089C46.0226 102.442 82.6662 105.408 83.0161 105.167C83.1785 105.055 87.0511 99.8192 91.6215 93.5322C96.192 87.2448 108.719 70.0381 119.458 55.2943C130.198 40.5508 139.207 28.1813 139.478 27.8063L139.971 27.1245L139.535 28.0375C139.296 28.5398 130.491 46.3959 119.969 67.7176C109.447 89.0395 100.828 106.567 100.815 106.668C100.798 106.807 159.937 111.795 162.904 111.905C164.281 111.955 166.265 110.295 166.638 108.779C166.908 107.684 157.306 4.59119 156.84 3.5766C156.37 2.55402 154.995 1.55903 153.808 1.38266C152.21 1.14517 151.259 1.56694 149.062 3.48664ZM100.028 127.742C103.49 141.745 103.391 141.463 105.123 142.229C107.119 143.111 109.354 142.43 110.408 140.619C111.172 139.308 120.611 116.916 120.442 116.816C120.316 116.741 97.1334 114.782 96.94 114.83C96.8854 114.844 98.2748 120.654 100.028 127.742Z" fill="#0088CC"/>
<circle opacity="0.3" cx="16.2365" cy="72.9942" r="12.9345" transform="rotate(-13.8901 16.2365 72.9942)" fill="url(#paint0_linear_7_38)"/>
<circle cx="183.458" cy="44.6501" r="6.84767" transform="rotate(-13.8901 183.458 44.6501)" fill="#000001"/>
<ellipse cx="145.778" cy="188.992" rx="5.9735" ry="6.63722" transform="rotate(-13.8901 145.778 188.992)" fill="#0088CC"/>
<defs>
<linearGradient id="paint0_linear_7_38" x1="16.2365" y1="60.0597" x2="16.2365" y2="69.111" gradientUnits="userSpaceOnUse">
<stop stop-color="#0088CC"/>
<stop offset="1" stop-color="#F4F4F6"/>
</linearGradient>
</defs>
</svg>
