<svg width="64" height="64" viewBox="0 0 64 64" fill="none" xmlns="http://www.w3.org/2000/svg">
<path opacity="0.2" d="M32 62C48.5685 62 62 48.5685 62 32C62 15.4315 48.5685 2 32 2C15.4315 2 2 15.4315 2 32C2 48.5685 15.4315 62 32 62Z" fill="#51AAB1"/>
<path d="M32 62C48.5685 62 62 48.5685 62 32C62 15.4315 48.5685 2 32 2C15.4315 2 2 15.4315 2 32C2 48.5685 15.4315 62 32 62Z" stroke="#51AAB1" stroke-width="3" stroke-miterlimit="10"/>
<path d="M20.75 29.5C22.8211 29.5 24.5 27.8211 24.5 25.75C24.5 23.6789 22.8211 22 20.75 22C18.6789 22 17 23.6789 17 25.75C17 27.8211 18.6789 29.5 20.75 29.5Z" fill="#51AAB1"/>
<path d="M43.25 29.5C45.3211 29.5 47 27.8211 47 25.75C47 23.6789 45.3211 22 43.25 22C41.1789 22 39.5 23.6789 39.5 25.75C39.5 27.8211 41.1789 29.5 43.25 29.5Z" fill="#51AAB1"/>
<path d="M44.9995 39.5C43.6779 41.7769 41.7815 43.6667 39.5001 44.9804C37.2186 46.2941 34.6321 46.9855 31.9995 46.9855C29.3669 46.9855 26.7804 46.2941 24.499 44.9804C22.2175 43.6667 20.3211 41.7769 18.9995 39.5" stroke="#51AAB1" stroke-width="3" stroke-linecap="round" stroke-linejoin="round"/>
</svg>
