<svg width="39" height="39" viewBox="0 0 39 39" fill="none" xmlns="http://www.w3.org/2000/svg">
<circle cx="19.3976" cy="19.3976" r="19.3976" fill="#4CCD73"/>
<path fill-rule="evenodd" clip-rule="evenodd" d="M14.5838 8.84551C14.1432 8.95061 13.7485 9.27897 13.5424 9.71197L13.4142 9.98112V19.4014V28.8216L13.5424 29.0908C13.7052 29.4328 13.9624 29.6901 14.3045 29.8529L14.5737 29.981H19.3977H24.2217L24.4908 29.8529C24.8329 29.6901 25.0901 29.4328 25.2529 29.0908L25.3811 28.8216V19.4014V9.98112L25.2529 9.71197C25.0901 9.3699 24.8329 9.11268 24.4908 8.94986L24.2217 8.8217L19.4805 8.81508C16.807 8.81135 14.6715 8.82464 14.5838 8.84551ZM21.7176 9.81685C21.7466 9.85176 21.7787 9.96824 21.7889 10.0757C21.8037 10.2318 21.7894 10.2938 21.7176 10.3848L21.6277 10.4987H19.4199C17.3079 10.4987 17.208 10.4953 17.1145 10.4195C17.0334 10.354 17.0167 10.3019 17.0167 10.1154C17.0167 9.72352 16.8202 9.75338 19.3977 9.75338C21.3843 9.75338 21.6715 9.76124 21.7176 9.81685ZM24.2424 18.2627V25.1156H19.3977H14.553V18.2627V11.4097H19.3977H24.2424V18.2627ZM19.8459 26.6312C20.3199 26.8674 20.5074 27.4508 20.2646 27.9342C19.9106 28.639 18.8847 28.639 18.5307 27.9342C18.2022 27.2801 18.6671 26.5235 19.3977 26.5235C19.5647 26.5235 19.6905 26.5537 19.8459 26.6312Z" fill="white"/>
</svg>
