<svg width="64" height="64" viewBox="0 0 64 64" fill="none" xmlns="http://www.w3.org/2000/svg">
<path d="M59 34H58V24C58 23.2044 57.6839 22.4413 57.1213 21.8787C56.5587 21.3161 55.7957 21 55 21H54V12C54 11.2044 53.6839 10.4413 53.1213 9.87868C52.5587 9.31607 51.7957 9 51 9H9C7.14422 9.00238 5.36512 9.74064 4.05288 11.0529C2.74064 12.3651 2.00238 14.1442 2 16V54C2.00159 55.3256 2.52888 56.5964 3.46622 57.5338C4.40356 58.4711 5.67441 58.9984 7 59H55C55.7957 59 56.5587 58.6839 57.1213 58.1213C57.6839 57.5587 58 56.7957 58 56V48H59C59.7957 48 60.5587 47.6839 61.1213 47.1213C61.6839 46.5587 62 45.7957 62 45V37C62 36.2044 61.6839 35.4413 61.1213 34.8787C60.5587 34.3161 59.7957 34 59 34ZM5.47 12.464C5.93134 11.9973 6.48122 11.6274 7.08738 11.376C7.69354 11.1247 8.34378 10.9968 9 11H51C51.2652 11 51.5196 11.1054 51.7071 11.2929C51.8946 11.4804 52 11.7348 52 12V15H9C8.73478 15 8.48043 15.1054 8.29289 15.2929C8.10536 15.4804 8 15.7348 8 16C8 16.2652 8.10536 16.5196 8.29289 16.7071C8.48043 16.8946 8.73478 17 9 17H52V21H9C7.67441 20.9984 6.40356 20.4711 5.46622 19.5338C4.52888 18.5964 4.00159 17.3256 4 16C3.99707 15.3424 4.1256 14.6908 4.37804 14.0836C4.63048 13.4764 5.00174 12.9257 5.47 12.464ZM56 56C56 56.2652 55.8946 56.5196 55.7071 56.7071C55.5196 56.8946 55.2652 57 55 57H7C6.20435 57 5.44129 56.6839 4.87868 56.1213C4.31607 55.5587 4 54.7957 4 54V20.9L4.031 20.928C4.08256 20.9803 4.1376 21.03 4.19262 21.0798C4.2155 21.1005 4.23838 21.1211 4.261 21.142C4.28102 21.1605 4.30247 21.1806 4.32488 21.2015C4.38863 21.2613 4.46019 21.3283 4.529 21.386C4.58852 21.4359 4.63902 21.4727 4.68917 21.5093C4.71738 21.5298 4.74548 21.5503 4.775 21.573C4.81307 21.6012 4.85028 21.6298 4.88733 21.6583C4.94759 21.7046 5.00746 21.7507 5.07 21.794C5.1238 21.8301 5.1796 21.8633 5.23538 21.8966C5.26772 21.9159 5.30006 21.9352 5.332 21.955C5.35204 21.9676 5.37203 21.9803 5.39204 21.9929C5.47687 22.0467 5.5618 22.1004 5.65 22.149C5.71067 22.1823 5.77401 22.2121 5.83735 22.2419C5.86901 22.2568 5.90067 22.2717 5.932 22.287C5.96255 22.302 5.99295 22.3173 6.02336 22.3326C6.10246 22.3724 6.18166 22.4123 6.264 22.447C6.33861 22.4784 6.40423 22.5017 6.46982 22.525C6.50445 22.5372 6.53907 22.5495 6.575 22.563C6.60237 22.5733 6.63058 22.5842 6.65936 22.5953C6.73992 22.6264 6.825 22.6592 6.909 22.685C6.99512 22.7114 7.08637 22.7339 7.17716 22.7562C7.20655 22.7634 7.23589 22.7707 7.265 22.778C7.31009 22.7894 7.35116 22.8007 7.39065 22.8117C7.4554 22.8296 7.51592 22.8463 7.583 22.86C7.68829 22.8818 7.79584 22.8968 7.90353 22.9119C7.93903 22.9168 7.97455 22.9218 8.01 22.927C8.04329 22.9318 8.07645 22.9374 8.10968 22.9431C8.16626 22.9527 8.22303 22.9623 8.281 22.968C8.51997 22.9908 8.75995 23.0015 9 23H55C55.2652 23 55.5196 23.1054 55.7071 23.2929C55.8946 23.4804 56 23.7348 56 24V34H45C44.2043 34 43.4413 34.3161 42.8787 34.8787C42.3161 35.4413 42 36.2044 42 37V45C42 45.7957 42.3161 46.5587 42.8787 47.1213C43.4413 47.6839 44.2043 48 45 48H56V56ZM60 45C60 45.2652 59.8946 45.5196 59.7071 45.7071C59.5196 45.8946 59.2652 46 59 46H45C44.7348 46 44.4804 45.8946 44.2929 45.7071C44.1054 45.5196 44 45.2652 44 45V37C44 36.7348 44.1054 36.4804 44.2929 36.2929C44.4804 36.1054 44.7348 36 45 36H59C59.2652 36 59.5196 36.1054 59.7071 36.2929C59.8946 36.4804 60 36.7348 60 37V45Z" fill="#0088CC"/>
<path d="M59 34H58V24C58 23.2044 57.6839 22.4413 57.1213 21.8787C56.5587 21.3161 55.7957 21 55 21H54V12C54 11.2044 53.6839 10.4413 53.1213 9.87868C52.5587 9.31607 51.7957 9 51 9H9C7.14422 9.00238 5.36512 9.74064 4.05288 11.0529C2.74064 12.3651 2.00238 14.1442 2 16V54C2.00159 55.3256 2.52888 56.5964 3.46622 57.5338C4.40356 58.4711 5.67441 58.9984 7 59H55C55.7957 59 56.5587 58.6839 57.1213 58.1213C57.6839 57.5587 58 56.7957 58 56V48H59C59.7957 48 60.5587 47.6839 61.1213 47.1213C61.6839 46.5587 62 45.7957 62 45V37C62 36.2044 61.6839 35.4413 61.1213 34.8787C60.5587 34.3161 59.7957 34 59 34ZM5.47 12.464C5.93134 11.9973 6.48122 11.6274 7.08738 11.376C7.69354 11.1247 8.34378 10.9968 9 11H51C51.2652 11 51.5196 11.1054 51.7071 11.2929C51.8946 11.4804 52 11.7348 52 12V15H9C8.73478 15 8.48043 15.1054 8.29289 15.2929C8.10536 15.4804 8 15.7348 8 16C8 16.2652 8.10536 16.5196 8.29289 16.7071C8.48043 16.8946 8.73478 17 9 17H52V21H9C7.67441 20.9984 6.40356 20.4711 5.46622 19.5338C4.52888 18.5964 4.00159 17.3256 4 16C3.99707 15.3424 4.1256 14.6908 4.37804 14.0836C4.63048 13.4764 5.00174 12.9257 5.47 12.464ZM56 56C56 56.2652 55.8946 56.5196 55.7071 56.7071C55.5196 56.8946 55.2652 57 55 57H7C6.20435 57 5.44129 56.6839 4.87868 56.1213C4.31607 55.5587 4 54.7957 4 54V20.9L4.031 20.928C4.08256 20.9803 4.1376 21.03 4.19262 21.0798C4.2155 21.1005 4.23838 21.1211 4.261 21.142C4.28102 21.1605 4.30247 21.1806 4.32488 21.2015C4.38863 21.2613 4.46019 21.3283 4.529 21.386C4.58852 21.4359 4.63902 21.4727 4.68917 21.5093C4.71738 21.5298 4.74548 21.5503 4.775 21.573C4.81307 21.6012 4.85028 21.6298 4.88733 21.6583C4.94759 21.7046 5.00746 21.7507 5.07 21.794C5.1238 21.8301 5.1796 21.8633 5.23538 21.8966C5.26772 21.9159 5.30006 21.9352 5.332 21.955C5.35204 21.9676 5.37203 21.9803 5.39204 21.9929C5.47687 22.0467 5.5618 22.1004 5.65 22.149C5.71067 22.1823 5.77401 22.2121 5.83735 22.2419C5.86901 22.2568 5.90067 22.2717 5.932 22.287C5.96255 22.302 5.99295 22.3173 6.02336 22.3326C6.10246 22.3724 6.18166 22.4123 6.264 22.447C6.33861 22.4784 6.40423 22.5017 6.46982 22.525C6.50445 22.5372 6.53907 22.5495 6.575 22.563C6.60237 22.5733 6.63058 22.5842 6.65936 22.5953C6.73992 22.6264 6.825 22.6592 6.909 22.685C6.99512 22.7114 7.08637 22.7339 7.17716 22.7562C7.20655 22.7634 7.23589 22.7707 7.265 22.778C7.31009 22.7894 7.35116 22.8007 7.39065 22.8117C7.4554 22.8296 7.51592 22.8463 7.583 22.86C7.68829 22.8818 7.79584 22.8968 7.90353 22.9119C7.93903 22.9168 7.97455 22.9218 8.01 22.927C8.04329 22.9318 8.07645 22.9374 8.10968 22.9431C8.16626 22.9527 8.22303 22.9623 8.281 22.968C8.51997 22.9908 8.75995 23.0015 9 23H55C55.2652 23 55.5196 23.1054 55.7071 23.2929C55.8946 23.4804 56 23.7348 56 24V34H45C44.2043 34 43.4413 34.3161 42.8787 34.8787C42.3161 35.4413 42 36.2044 42 37V45C42 45.7957 42.3161 46.5587 42.8787 47.1213C43.4413 47.6839 44.2043 48 45 48H56V56ZM60 45C60 45.2652 59.8946 45.5196 59.7071 45.7071C59.5196 45.8946 59.2652 46 59 46H45C44.7348 46 44.4804 45.8946 44.2929 45.7071C44.1054 45.5196 44 45.2652 44 45V37C44 36.7348 44.1054 36.4804 44.2929 36.2929C44.4804 36.1054 44.7348 36 45 36H59C59.2652 36 59.5196 36.1054 59.7071 36.2929C59.8946 36.4804 60 36.7348 60 37V45Z" stroke="#0088CC"/>
<path d="M49 38C48.4067 38 47.8266 38.1759 47.3333 38.5056C46.8399 38.8352 46.4554 39.3038 46.2284 39.852C46.0013 40.4001 45.9419 41.0033 46.0576 41.5853C46.1734 42.1672 46.4591 42.7018 46.8787 43.1213C47.2982 43.5409 47.8328 43.8266 48.4147 43.9424C48.9967 44.0581 49.5999 43.9987 50.148 43.7716C50.6962 43.5446 51.1648 43.1601 51.4944 42.6667C51.8241 42.1734 52 41.5933 52 41C52 40.2044 51.6839 39.4413 51.1213 38.8787C50.5587 38.3161 49.7957 38 49 38ZM49 42C48.8022 42 48.6089 41.9414 48.4444 41.8315C48.28 41.7216 48.1518 41.5654 48.0761 41.3827C48.0004 41.2 47.9806 40.9989 48.0192 40.8049C48.0578 40.6109 48.153 40.4327 48.2929 40.2929C48.4327 40.153 48.6109 40.0578 48.8049 40.0192C48.9989 39.9806 49.2 40.0004 49.3827 40.0761C49.5654 40.1518 49.7216 40.28 49.8315 40.4444C49.9414 40.6089 50 40.8022 50 41C50 41.2652 49.8946 41.5196 49.7071 41.7071C49.5196 41.8946 49.2652 42 49 42Z" fill="#0088CC"/>
</svg>
